<?xml version="1.0" standalone="no"?><!DOCTYPE svg PUBLIC "-//W3C//DTD SVG 1.1//EN" "http://www.w3.org/Graphics/SVG/1.1/DTD/svg11.dtd"><svg t="1677688167662" class="icon" viewBox="0 0 1024 1024" version="1.1" xmlns="http://www.w3.org/2000/svg" p-id="7832" xmlns:xlink="http://www.w3.org/1999/xlink" width="16" height="16"><path d="M256 465.454545h298.193455A144.128 144.128 0 0 0 698.181818 321.466182v-14.568727A144.128 144.128 0 0 0 554.193455 162.909091H256v302.545454z m-69.818182 69.818182V149.387636A56.366545 56.366545 0 0 1 242.478545 93.090909h311.71491C672.093091 93.090909 768 188.997818 768 306.897455v14.568727a213.271273 213.271273 0 0 1-69.073455 157.230545C793.227636 511.441455 861.090909 601.181091 861.090909 706.466909v6.702546C861.090909 846.056727 752.965818 954.181818 620.078545 954.181818H244.363636A58.228364 58.228364 0 0 1 186.181818 896V535.272727z m69.818182 349.090909h364.078545C714.472727 884.363636 791.272727 807.563636 791.272727 713.169455v-6.702546C791.272727 612.072727 714.472727 535.272727 620.078545 535.272727H256v349.090909z" fill="#000000" p-id="7833"></path></svg>