<?xml version="1.0" standalone="no"?><!DOCTYPE svg PUBLIC "-//W3C//DTD SVG 1.1//EN" "http://www.w3.org/Graphics/SVG/1.1/DTD/svg11.dtd"><svg t="1677165503540" class="icon" viewBox="0 0 1024 1024" version="1.1" xmlns="http://www.w3.org/2000/svg" p-id="9036" xmlns:xlink="http://www.w3.org/1999/xlink" width="16" height="16"><path d="M928 160c17.673 0 32 14.327 32 32v640c0 17.673-14.327 32-32 32H96c-17.673 0-32-14.327-32-32V192c0-17.673 14.327-32 32-32h832z m-40 72H136v560h752V232zM608 351c0-6.8 7.9-10.5 13.1-6.1l192 160.9c3.8 3.2 3.8 9.1 0 12.3l-192 161c-5.2 4.4-13.1 0.7-13.1-6.1v-62.7c0-2.3 1.1-4.6 2.9-6.1L720.7 512l-109.8-92.2c-1.9-1.5-2.9-3.7-2.9-6.1z m-192.05 0v62.7c0 2.4-1 4.6-2.9 6.1L303.25 512l109.8 92.2c1.8 1.5 2.9 3.8 2.9 6.1V673c0 6.8-7.9 10.5-13.1 6.1l-192-161c-3.8-3.2-3.8-9.1 0-12.3l192-160.9c5.2-4.4 13.1-0.7 13.1 6.1z" p-id="9037"></path></svg>