<?xml version="1.0" standalone="no"?><!DOCTYPE svg PUBLIC "-//W3C//DTD SVG 1.1//EN" "http://www.w3.org/Graphics/SVG/1.1/DTD/svg11.dtd"><svg t="1677676729206" class="icon" viewBox="0 0 1024 1024" version="1.1" xmlns="http://www.w3.org/2000/svg" p-id="1569" xmlns:xlink="http://www.w3.org/1999/xlink" width="16" height="16"><path d="M512 64c247.039484 0 448 200.960516 448 448S759.039484 960 512 960 64 759.039484 64 512 264.960516 64 512 64zM512 896.00000001c211.74444299 0 384-172.255557 384.00000001-384.00000001s-172.255557-384-384.00000001-384.00000001-384 172.255557-384.00000001 384.00000001S300.255557 896 512 896.00000001z" fill="#000000" p-id="1570"></path><path d="M733.632146 499.647252c-0.032684-0.127295-0.192662-0.25631-0.25631-0.383604-1.536138-3.615858-3.648542-7.07173799-6.591802-10.047682-0.032684-0.032684-0.063647-0.032684-0.096331-0.063647s-0.032684-0.063647-0.063647-0.096331l-158.911974-159.359226c-12.480043-12.512727-32.704421-12.576374-45.248112-0.063647-12.512727 12.480043-12.54369 32.70442099-0.063647 45.24811199l103.327187 103.61618101-305.056632-1e-8c-17.66472199 0-31.99914 14.336138-31.99914 32.00086001s14.33613801 32.00086 31.99914 32.00085999L627.423626 542.499126l-106.112189 104.959656c-12.576374 12.447359-12.672705 32.671738-0.25631 45.248112 6.240882 6.335493 14.496116 9.504099 22.751351 9.504099 8.12794 0 16.25588-3.103239 22.496761-9.247789l160.25545-158.495686C735.99914 525.087273 738.367854 511.296439 733.632146 499.647252z" fill="#000000" p-id="1571"></path></svg>