<?xml version="1.0" standalone="no"?><!DOCTYPE svg PUBLIC "-//W3C//DTD SVG 1.1//EN" "http://www.w3.org/Graphics/SVG/1.1/DTD/svg11.dtd"><svg t="1677686733116" class="icon" viewBox="0 0 1024 1024" version="1.1" xmlns="http://www.w3.org/2000/svg" p-id="1479" xmlns:xlink="http://www.w3.org/1999/xlink" width="16" height="16"><path d="M709.9904 789.76c44.6464 0 88.9856 0.7168 132.1984-12.6976 57.8048-17.9712 109.4656-54.4768 141.824-106.0864 54.272-86.528 45.4144-222.5152-23.7568-299.0592-46.4896-51.5072-117.504-67.3792-184.32-69.0688L814.592 353.28c24.9856-133.632-60.416-246.8864-183.9104-290.8672-117.0432-41.6256-270.2848-16.64-351.5392 82.9952a257.3824 257.3824 0 0 0-55.6544 195.2256l39.936-39.936C140.288 296.4992 35.84 376.0128 15.36 499.1488c-21.248 126.5152 51.2 236.3392 171.8272 276.1216 46.7968 15.36 94.5664 14.336 143.0528 14.3872 51.2 0 51.456-79.8208 0-79.872-40.3968 0-79.4624 1.792-118.5792-10.24-51.2-16.0256-98.6624-53.8624-114.6368-106.752-14.8992-49.2544-4.1984-106.8032 24.6272-149.0944C154.0608 395.6736 207.7696 378.88 263.424 380.5696c19.712 0.6656 42.4448-18.944 39.936-39.936-6.9632-58.2656 5.7344-114.5344 48.5376-156.7232 41.5232-40.96 100.4544-59.2384 157.7472-60.4672 113.664-2.4064 252.416 77.7728 227.9424 208.6912-4.8128 25.6 10.9056 49.8176 38.5024 50.5344C826.0608 384 881.7152 394.24 911.36 438.528c24.7808 36.5056 31.5392 89.9072 25.344 133.12-7.8848 55.2448-46.8992 99.7376-97.28 121.5488-41.7792 18.0736-85.248 16.64-129.6384 16.64-51.2 0-51.456 79.8208 0 79.872z" p-id="1480"></path><path d="M676.7104 577.6896l-160.9728-165.632-163.328 163.328a34.816 34.816 0 0 0 0 49.0496 34.816 34.816 0 0 0 49.0496 0l113.7664-110.5408 112.64 112.64a34.7136 34.7136 0 0 0 49.0496-49.0496z" p-id="1481"></path><path d="M475.904 497.4592m38.4512 0l0 0q38.4512 0 38.4512 38.4512l0 380.0576q0 38.4512-38.4512 38.4512l0 0q-38.4512 0-38.4512-38.4512l0-380.0576q0-38.4512 38.4512-38.4512Z" p-id="1482"></path></svg>